<svg xmlns="http://www.w3.org/2000/svg" version="1.1" xmlns:xlink="http://www.w3.org/1999/xlink" xmlns:svgjs="http://svgjs.dev/svgjs" width="1440" height="560" preserveAspectRatio="none" viewBox="0 0 1440 560"><g mask="url(&quot;#SvgjsMask1007&quot;)" fill="none"><rect width="1440" height="560" x="0" y="0" fill="rgba(165, 216, 255, 1)"></rect><path d="M 0,160 C 57.6,143.2 172.8,70.8 288,76 C 403.2,81.2 460.8,190 576,186 C 691.2,182 748.8,38.8 864,56 C 979.2,73.2 1036.8,282.2 1152,272 C 1267.2,261.8 1382.4,58.4 1440,5L1440 560L0 560z" fill="rgba(231, 245, 255, 1)"></path><path d="M 0,342 C 96,380.2 288,520 480,533 C 672,546 768,403 960,407 C 1152,411 1344,523.8 1440,553L1440 560L0 560z" fill="rgba(165, 216, 255, 1)"></path></g><defs><mask id="SvgjsMask1007"><rect width="1440" height="560" fill="#ffffff"></rect></mask></defs></svg>